<svg width="16" height="15" viewBox="0 0 16 15" fill="none" xmlns="http://www.w3.org/2000/svg">
<g clip-path="url(#clip0)">
<path d="M14.9941 14.6198C14.7131 13.4526 13.1071 12.8831 12.5521 12.6998C11.8818 12.5411 11.2024 12.4184 10.5171 12.3324C10.1717 12.2737 9.8479 12.1333 9.57615 11.9245C9.4801 11.3256 9.45929 10.7181 9.51414 10.1146C9.68562 9.86092 9.83447 9.59436 9.95914 9.31764C10.1026 8.86171 10.2122 8.39699 10.2871 7.9268C10.2871 7.9268 10.6071 7.92679 10.7211 7.39865C10.8702 7.00112 10.9672 6.58804 11.0101 6.16851C10.9871 5.74655 10.7401 5.75783 10.7401 5.75783C10.9271 5.14711 11.0167 4.51373 11.0061 3.87832C10.9181 3.06351 10.5114 2.30841 9.86474 1.75933C9.21812 1.21024 8.37764 0.90625 7.50615 0.90625C6.63465 0.90625 5.79417 1.21024 5.14755 1.75933C4.50093 2.30841 4.09419 3.06351 4.00615 3.87832C3.99844 4.51331 4.08665 5.14613 4.26815 5.75783C4.26815 5.75783 4.02214 5.74655 3.99814 6.16945C4.04108 6.58898 4.13812 7.00207 4.28714 7.3996C4.39614 7.92868 4.72114 7.92868 4.72114 7.92868C4.7961 8.39886 4.9057 8.8636 5.04914 9.31952C5.17385 9.59624 5.32269 9.86278 5.49414 10.1164C5.54867 10.72 5.52752 11.3275 5.43114 11.9264C5.15939 12.1352 4.83556 12.2756 4.49015 12.3343C3.80494 12.4203 3.1255 12.543 2.45514 12.7017C1.90014 12.8897 0.295142 13.4535 0.0131415 14.6216C0.00303852 14.6648 0.00345495 14.7096 0.014347 14.7525C0.025239 14.7955 0.04633 14.8357 0.0760459 14.8699C0.105762 14.9042 0.143331 14.9317 0.185947 14.9503C0.228564 14.969 0.275125 14.9784 0.322147 14.9778H14.6941C14.7406 14.9772 14.7864 14.9669 14.828 14.9475C14.8697 14.9282 14.9063 14.9003 14.935 14.866C14.9638 14.8317 14.984 14.7918 14.9942 14.7492C15.0045 14.7066 15.0044 14.6624 14.9941 14.6198V14.6198Z" fill="black"/>
</g>
<defs>
<clipPath id="clip0">
<rect x="0.00317383" y="0.879517" width="15" height="14.0964" fill="white"/>
</clipPath>
</defs>
</svg>
